<?xml version="1.0" encoding="UTF-8" standalone="no"?>
<svg
   width="781"
   height="321"
   version="1.1"
   id="svg293"
   sodipodi:docname="feature_tree_structure.svg"
   inkscape:version="1.1.1 (3bf5ae0d25, 2021-09-20, custom)"
   xmlns:inkscape="http://www.inkscape.org/namespaces/inkscape"
   xmlns:sodipodi="http://sodipodi.sourceforge.net/DTD/sodipodi-0.dtd"
   xmlns:xlink="http://www.w3.org/1999/xlink"
   xmlns="http://www.w3.org/2000/svg"
   xmlns:svg="http://www.w3.org/2000/svg"
   xmlns:lucid="lucid">
  <defs
     id="defs297" />
  <sodipodi:namedview
     id="namedview295"
     pagecolor="#ffffff"
     bordercolor="#666666"
     borderopacity="1.0"
     inkscape:pageshadow="2"
     inkscape:pageopacity="0.0"
     inkscape:pagecheckerboard="0"
     showgrid="false"
     inkscape:zoom="1.1109091"
     inkscape:cx="409.57446"
     inkscape:cy="102.61866"
     inkscape:window-width="1920"
     inkscape:window-height="1135"
     inkscape:window-x="0"
     inkscape:window-y="0"
     inkscape:window-maximized="1"
     inkscape:current-layer="g291" />
  <g
     transform="translate(1300.5000502073422 -79.49999024514945)"
     lucid:page-tab-id="0_0"
     id="g291">
    <path
       d="M-1020 106a6 6 0 0 1 6-6h148a6 6 0 0 1 6 6v28a6 6 0 0 1-6 6h-148a6 6 0 0 1-6-6z"
       stroke="#3a414a"
       fill="#f2f3f5"
       id="path4" />
    <use
       xlink:href="#a"
       transform="matrix(1,0,0,1,-1015,105) translate(35.89952256944445 21.297743055555554)"
       id="use6" />
    <path
       d="M-1280 186a6 6 0 0 1 6-6h148a6 6 0 0 1 6 6v28a6 6 0 0 1-6 6h-148a6 6 0 0 1-6-6z"
       stroke="#3a414a"
       fill="#f2f3f5"
       id="path8" />
    <use
       xlink:href="#b"
       transform="matrix(1,0,0,1,-1275,185.00000000000006) translate(11.132812500000014 21.297743055555554)"
       id="use10" />
    <path
       d="M-900 186a6 6 0 0 1 6-6h148a6 6 0 0 1 6 6v28a6 6 0 0 1-6 6h-148a6 6 0 0 1-6-6z"
       stroke="#3a414a"
       fill="#f2f3f5"
       id="path12" />
    <use
       xlink:href="#c"
       transform="matrix(1,0,0,1,-895,185) translate(51.106770833333336 21.297743055555554)"
       id="use14" />
    <path
       d="M-900 266a6 6 0 0 1 6-6h148a6 6 0 0 1 6 6v28a6 6 0 0 1-6 6h-148a6 6 0 0 1-6-6z"
       stroke="#3a414a"
       fill="#f2f3f5"
       id="path16" />
    <use
       xlink:href="#d"
       transform="matrix(1,0,0,1,-895,265) translate(23.30729166666667 21.297743055555554)"
       id="use18" />
    <path
       d="M-1102.66 346a6 6 0 0 1 6-6h88a6 6 0 0 1 6 6v28a6 6 0 0 1-6 6h-88a6 6 0 0 1-6-6z"
       stroke="#3a414a"
       fill="#f2f3f5"
       id="path20" />
    <use
       xlink:href="#e"
       transform="matrix(1,0,0,1,-1097.657659559496,345.0000000000001) translate(11.878255208333336 21.297743055555554)"
       id="use22" />
    <path
       d="M-990 346a6 6 0 0 1 6-6h68a6 6 0 0 1 6 6v28a6 6 0 0 1-6 6h-68a6 6 0 0 1-6-6z"
       stroke="#3a414a"
       fill="#f2f3f5"
       id="path24" />
    <use
       xlink:href="#f"
       transform="matrix(1,0,0,1,-985,345.0000000000001) translate(11.079644097222221 21.297743055555554)"
       id="use26" />
    <path
       d="M-892.66 346a6 6 0 0 1 6-6H-716a6 6 0 0 1 6 6v28a6 6 0 0 1-6 6h-170.66a6 6 0 0 1-6-6z"
       stroke="#3a414a"
       fill="#f2f3f5"
       id="path28" />
    <use
       xlink:href="#g"
       transform="matrix(1,0,0,1,-887.6576595594961,345.0000000000001) translate(7.007812499999986 21.297743055555554)"
       id="use30" />
    <path
       d="M-700 346a6 6 0 0 1 6-6h148a6 6 0 0 1 6 6v28a6 6 0 0 1-6 6h-148a6 6 0 0 1-6-6z"
       stroke="#3a414a"
       fill="#f2f3f5"
       id="path32" />
    <use
       xlink:href="#h"
       transform="matrix(1,0,0,1,-695,345) translate(18.65234375 21.297743055555554)"
       id="use34" />
    <path
       d="M-940.06 140.96v.06l-.04.1-.03.1-.04.1-.04.1-.06.1-.06.1-.06.12-.08.12-.08.12-.1.13-.12.15-.13.15-.14.15-.18.17-.22.2-.25.2-.3.2-.36.25-.46.28-.57.3-.7.37-.94.4-1.25.5-1.7.6-2.45.73-3.68.94-5.97 1.25-10.8 1.8-24.25 2.97-173.94 15.53-10.8 1.8-5.97 1.26-.2.06"
       stroke="#3a414a"
       stroke-linejoin="round"
       fill="none"
       id="path36" />
    <path
       d="M-939.5 141l-1-.03v-.5h1z"
       stroke="#3a414a"
       stroke-width=".05"
       fill="#3a414a"
       id="path38" />
    <path
       d="M-1198.56 178.8l10.56-10.66 4.24 8.24z"
       stroke="#3a414a"
       fill="#3a414a"
       id="path40" />
    <path
       d="M-939.97 140.96v.1l.04.2.03.18.05.2.05.2.07.2.07.2.1.2.1.22.1.2.13.24.15.23.17.24.18.25.22.27.25.26.3.3.32.3.4.35.46.38.54.4.66.43.8.5.97.53 1.23.6 1.57.7 2.06.82 2.8.97 4.02 1.2 6.2 1.58 11.33 2.38 60.52 10.82 6.2 1.58 4 1.2 1.67.58"
       stroke="#3a414a"
       stroke-linejoin="round"
       fill="none"
       id="path42" />
    <path
       d="M-939.5 140.97l-1 .02v-.54h1z"
       stroke="#3a414a"
       stroke-width=".05"
       fill="#3a414a"
       id="path44" />
    <path
       d="M-821.27 178.54l-14.1-5.16 5.74-7.3z"
       stroke="#3a414a"
       fill="#3a414a"
       id="path46" />
    <path
       d="M-820 220.96v22.2"
       stroke="#3a414a"
       stroke-linejoin="round"
       fill="none"
       id="path48" />
    <path
       d="M-819.5 220.98h-1v-.52h1z"
       stroke="#3a414a"
       stroke-width=".05"
       fill="#3a414a"
       id="path50" />
    <path
       d="M-820 257.92l-4.64-14.27h9.28z"
       stroke="#3a414a"
       fill="#3a414a"
       id="path52" />
    <path
       d="M-820.05 300.96v.02l-.03.1-.03.1-.04.12-.04.1-.05.12-.06.12-.05.12-.07.12-.1.13-.08.15-.1.14-.14.15-.14.16-.17.18-.2.2-.24.2-.26.2-.34.25-.4.27-.5.3-.6.34-.8.4-1 .44-1.36.53-1.84.65-2.63.8-3.96 1-6.38 1.34-11.63 1.93-27.13 3.32-138.92 13.42-11.63 1.94-6.4 1.36-1.54.4"
       stroke="#3a414a"
       stroke-linejoin="round"
       fill="none"
       id="path54" />
    <path
       d="M-819.5 301l-1-.03v-.5h1z"
       stroke="#3a414a"
       stroke-width=".05"
       fill="#3a414a"
       id="path56" />
    <path
       d="M-1051.24 338.76l10.3-10.9 4.45 8.15z"
       stroke="#3a414a"
       fill="#3a414a"
       id="path58" />
    <path
       d="M-820.03 300.96v.05l-.03.2-.04.18-.04.18-.05.18-.05.2-.07.18-.08.2-.1.2-.1.2-.13.2-.13.23-.16.22-.18.24-.2.26-.25.26-.27.28-.32.3-.37.32-.45.35-.52.37-.62.42-.75.46-.93.5-1.17.6-1.5.65-1.98.78-2.68.93-3.82 1.15-5.82 1.48-10.15 2.14-73.23 12.45-5.82 1.47-3.82 1.15-.8.28"
       stroke="#3a414a"
       stroke-linejoin="round"
       fill="none"
       id="path60" />
    <path
       d="M-819.5 301l-1-.03v-.5h1z"
       stroke="#3a414a"
       stroke-width=".05"
       fill="#3a414a"
       id="path62" />
    <path
       d="M-947.78 338.56l8.6-12.28 5.58 7.4z"
       stroke="#3a414a"
       fill="#3a414a"
       id="path64" />
    <path
       d="M-819.97 300.96l.2 3 .54 2.87.85 2.57 1.2 2.5 1.78 2.72 8.38 10.04"
       stroke="#3a414a"
       stroke-linejoin="round"
       fill="none"
       id="path66" />
    <path
       d="M-819.47 300.94l-1 .07-.03-.54h1z"
       stroke="#3a414a"
       stroke-width=".05"
       fill="#3a414a"
       id="path68" />
    <path
       d="M-801.9 338.03l-9.44-11.67 8.66-3.3z"
       stroke="#3a414a"
       fill="#3a414a"
       id="path70" />
    <path
       d="M-819.96 300.96l.02.1.03.12.03.12.04.13.04.13.07.13.06.12.07.14.1.14.08.15.1.16.14.17.14.18.17.18.2.2.2.2.28.24.32.24.38.3.45.3.56.32.7.38.87.44 1.13.5 1.5.6 2.03.7 2.9.86 4.34 1.1 7.03 1.5 12.98 2.15 35.05 4.25 91 9.85 12.97 2.16 7.03 1.5 3.54.9"
       stroke="#3a414a"
       stroke-linejoin="round"
       fill="none"
       id="path72" />
    <path
       d="M-819.5 300.97l-1 .02v-.54h1z"
       stroke="#3a414a"
       stroke-width=".05"
       fill="#3a414a"
       id="path74" />
    <path
       d="M-621.4 338.7l-14.63-3.26 4.72-7.98z"
       stroke="#3a414a"
       fill="#3a414a"
       id="path76" />
    <path
       d="M-1102.66 186a6 6 0 0 1 6-6h68a6 6 0 0 1 6 6v28a6 6 0 0 1-6 6h-68a6 6 0 0 1-6-6z"
       stroke="#3a414a"
       fill="#f2f3f5"
       id="path78" />
    <use
       xlink:href="#i"
       transform="matrix(1,0,0,1,-1097.657659559496,185) translate(3.3159722222222214 21.297743055555554)"
       id="use80" />
    <path
       d="M-1010 186a6 6 0 0 1 6-6h88a6 6 0 0 1 6 6v28a6 6 0 0 1-6 6h-88a6 6 0 0 1-6-6z"
       stroke="#3a414a"
       fill="#f2f3f5"
       id="path82" />
    <use
       xlink:href="#j"
       transform="matrix(1,0,0,1,-1005,185.00000000000006) translate(5.7421875 21.297743055555554)"
       id="use84" />
    <path
       d="M-940.03 140.96v.08l-.03.2-.04.18-.05.2-.05.2-.06.18-.08.2-.08.2-.1.2-.1.23-.14.22-.14.22-.17.24-.2.26-.2.26-.25.27-.28.28-.33.3-.4.34-.44.36-.54.4-.65.42-.8.47-.95.53-1.2.6-1.56.7-2.04.8-2.77.96-3.95 1.18-6.08 1.55-10.9 2.28-64.36 11.33-6.08 1.56-3.95 1.18-1.4.5"
       stroke="#3a414a"
       stroke-linejoin="round"
       fill="none"
       id="path86" />
    <path
       d="M-939.5 141l-1-.03v-.5h1z"
       stroke="#3a414a"
       stroke-width=".05"
       fill="#3a414a"
       id="path88" />
    <path
       d="M-1061.38 178.55l8.44-12.4 5.68 7.32z"
       stroke="#3a414a"
       fill="#3a414a"
       id="path90" />
    <path
       d="M-940.03 140.96l-.17 2.78-.53 2.75-.82 2.45-1.14 2.37-1.65 2.55-3.1 3.6-6.8 7.18"
       stroke="#3a414a"
       stroke-linejoin="round"
       fill="none"
       id="path92" />
    <path
       d="M-939.53 141l-1-.06.03-.48h1z"
       stroke="#3a414a"
       stroke-width=".05"
       fill="#3a414a"
       id="path94" />
    <path
       d="M-959.42 178.03l.82-14.98 8.65 3.34z"
       stroke="#3a414a"
       fill="#3a414a"
       id="path96" />
    <defs
       id="defs289">
      <path
         fill="#3a414a"
         d="M1093-169C944-46 755 79 489 14 221-51 55-249 55-582c0-346 170-557 421-660 197-81 486-47 619 54-4 69-58 131-89 182-8 12-16 20-22 25l-63-14c-66-94-139-170-293-170-187 0-263 170-303 345-27 119-22 309 14 413 53 156 146 272 337 279 72 3 129-14 177-37v-305c-2-43-34-49-73-62-21-7-51-13-88-20v-73h498v73c-58 15-97 31-97 82v301"
         id="k" />
      <path
         fill="#3a414a"
         d="M687-616c0-120-53-224-176-224-146 0-179 124-195 260h333c31-1 38-6 38-36zm233 421C797-79 706 34 480 30 277 26 159-94 98-249c-51-132-43-317 18-435 76-147 214-276 431-276 252 0 370 162 379 410-35 35-91 61-140 82H313c10 180 71 330 251 330 142 0 208-61 304-121 21 14 39 43 52 64"
         id="l" />
      <path
         fill="#3a414a"
         d="M814-960c151 0 221 99 221 256v570c8 28 38 30 68 42 17 7 39 12 65 19V0H663v-73c48-13 82-24 102-33s30-19 30-28v-454c-3-102-4-195-105-190-125 7-188 76-270 139v505c0 10 11 20 34 31s56 21 99 30V0H48v-73c44-11 77-22 99-31s33-19 33-30c-1-205 6-414-2-617-2-64-63-55-130-67v-70c119-13 221-35 315-72l42 42 11 144c121-102 230-186 398-186"
         id="m" />
      <path
         fill="#3a414a"
         d="M547-95c182-3 211-159 211-345 0-159-46-293-136-363-28-21-59-32-93-32-183 0-211 174-211 362 0 156 53 282 142 349 28 20 56 29 87 29zm197-829c193 78 317 304 248 570C945-174 822-46 648 10 468 68 279-10 189-105 84-216 25-453 102-636c75-177 215-324 456-324 68 0 130 13 186 36"
         id="n" />
      <path
         fill="#3a414a"
         d="M1328-960c158 0 237 93 237 256v570c0 9 10 19 31 28s57 20 110 33V0h-497v-73c47-13 83-21 111-47 3-4 5-9 5-14v-469c-3-102-2-192-105-185-95 7-161 63-227 125v529c7 28 33 31 62 42 16 6 38 12 64 19V0H636v-73c47-13 85-21 112-47 3-4 5-9 5-14v-469c-3-100 4-193-98-185s-158 61-235 125v529c0 10 10 20 30 31s52 21 95 30V0H48v-73c44-11 77-22 99-31s33-19 33-30c-1-205 9-417-2-618-3-61-66-54-130-66v-70c120-13 219-36 315-72l42 42 11 124c100-81 183-166 347-166 125 0 197 59 215 166 101-81 185-166 350-166"
         id="o" />
      <g
         id="a">
        <use
           transform="matrix(0.010850694444444444,0,0,0.010850694444444444,0,0)"
           xlink:href="#k"
           id="use103" />
        <use
           transform="matrix(0.010850694444444444,0,0,0.010850694444444444,13.368055555555555,0)"
           xlink:href="#l"
           id="use105" />
        <use
           transform="matrix(0.010850694444444444,0,0,0.010850694444444444,24.12109375,0)"
           xlink:href="#m"
           id="use107" />
        <use
           transform="matrix(0.010850694444444444,0,0,0.010850694444444444,37.033420138888886,0)"
           xlink:href="#n"
           id="use109" />
        <use
           transform="matrix(0.010850694444444444,0,0,0.010850694444444444,48.697916666666664,0)"
           xlink:href="#o"
           id="use111" />
        <use
           transform="matrix(0.010850694444444444,0,0,0.010850694444444444,67.44791666666666,0)"
           xlink:href="#l"
           id="use113" />
      </g>
      <path
         fill="#3a414a"
         d="M548-164c182 81 360-23 471-115 19 17 36 48 52 68C944-89 816 30 586 30c-256 0-407-160-486-356-64-157-57-393 4-550 101-260 325-453 694-406 98 12 191 44 254 92-9 71-56 133-86 187-7 12-14 21-19 26l-65-14c-57-98-128-167-260-167-252 0-314 258-314 535 0 231 84 390 240 459"
         id="p" />
      <path
         fill="#3a414a"
         d="M814-960c151 0 221 99 221 256v570c8 28 38 30 68 42 17 7 39 12 65 19V0H663v-73c48-13 82-24 102-33s30-19 30-28v-439c-2-110-6-210-113-205-117 5-174 73-262 139v505c0 10 11 20 34 31s56 21 99 30V0H48v-73c44-11 77-22 99-31s33-19 33-30c-2-399 10-806-2-1200-2-63-65-55-130-66v-70c124-17 229-40 328-80l44 41v727c119-96 229-178 394-178"
         id="q" />
      <path
         fill="#3a414a"
         d="M418-773c69-91 151-187 299-187 60 0 116 20 158 44 4 3 6 12 6 26 0 113-38 223-71 311h-73c-7-74-23-146-67-181-43-34-105-7-137 22-48 43-80 95-113 167v437c0 10 14 20 42 31s72 21 135 30V0H48v-73c88-20 132-40 132-61-1-195-2-395-2-586 0-82-49-99-130-98v-70c121-16 215-37 315-72l42 42"
         id="r" />
      <path
         fill="#3a414a"
         d="M547-808c-63-73-243-61-239 50 3 86 72 111 134 148 111 66 258 113 318 230 15 28 22 60 22 97C778-32 571 47 316 26 231 19 152-9 90-43c-26-75-10-216 7-293l81 11c29 127 98 232 242 232 90 0 142-26 142-112 0-138-143-173-241-229-81-46-168-92-212-173-33-59-21-140 9-197 90-174 455-200 628-79 8 74-29 165-58 217l-69-8c-17-59-43-101-72-134"
         id="s" />
      <g
         id="b">
        <use
           transform="matrix(0.010850694444444444,0,0,0.010850694444444444,0,0)"
           xlink:href="#p"
           id="use120" />
        <use
           transform="matrix(0.010850694444444444,0,0,0.010850694444444444,12.40234375,0)"
           xlink:href="#q"
           id="use122" />
        <use
           transform="matrix(0.010850694444444444,0,0,0.010850694444444444,25.31467013888889,0)"
           xlink:href="#r"
           id="use124" />
        <use
           transform="matrix(0.010850694444444444,0,0,0.010850694444444444,35.177951388888886,0)"
           xlink:href="#n"
           id="use126" />
        <use
           transform="matrix(0.010850694444444444,0,0,0.010850694444444444,46.842447916666664,0)"
           xlink:href="#o"
           id="use128" />
        <use
           transform="matrix(0.010850694444444444,0,0,0.010850694444444444,65.59244791666666,0)"
           xlink:href="#n"
           id="use130" />
        <use
           transform="matrix(0.010850694444444444,0,0,0.010850694444444444,77.25694444444443,0)"
           xlink:href="#s"
           id="use132" />
        <use
           transform="matrix(0.010850694444444444,0,0,0.010850694444444444,86.56684027777776,0)"
           xlink:href="#n"
           id="use134" />
        <use
           transform="matrix(0.010850694444444444,0,0,0.010850694444444444,98.23133680555553,0)"
           xlink:href="#o"
           id="use136" />
        <use
           transform="matrix(0.010850694444444444,0,0,0.010850694444444444,116.98133680555553,0)"
           xlink:href="#l"
           id="use138" />
      </g>
      <g
         id="c">
        <use
           transform="matrix(0.010850694444444444,0,0,0.010850694444444444,0,0)"
           xlink:href="#k"
           id="use141" />
        <use
           transform="matrix(0.010850694444444444,0,0,0.010850694444444444,13.368055555555555,0)"
           xlink:href="#l"
           id="use143" />
        <use
           transform="matrix(0.010850694444444444,0,0,0.010850694444444444,24.12109375,0)"
           xlink:href="#m"
           id="use145" />
        <use
           transform="matrix(0.010850694444444444,0,0,0.010850694444444444,37.033420138888886,0)"
           xlink:href="#l"
           id="use147" />
      </g>
      <path
         fill="#3a414a"
         d="M1151-1228c-5 98-22 200-38 288h-75c-17-67-17-142-52-186-8-10-19-14-33-14H706v995c11 31 44 40 80 53 20 7 46 13 77 19V0H300v-73c62-13 113-25 149-57 5-5 7-10 7-15v-995H202c-54 11-63 62-87 111-13 26-24 59-39 98L3-958c8-100 24-211 40-302h1070"
         id="t" />
      <path
         fill="#3a414a"
         d="M319-259c0 68 31 114 93 114 98 0 147-56 211-105v-221c-153 26-304 50-304 212zm584 99c38 0 59-16 91-27l22 75C927-56 834 9 717 30c-65-8-88-81-93-159C538-47 445 30 293 30 154 30 65-56 65-201c0-127 64-194 141-247 107-73 248-95 417-121v-118c9-110-74-169-178-134-46 15-82 54-78 119-52 44-150 61-229 78-15 2-26 3-31 2l-21-54c84-172 266-284 511-284 166 0 266 79 266 240v482c0 44 7 78 40 78"
         id="u" />
      <path
         fill="#3a414a"
         d="M567-138c129-2 186-59 272-116l54 64C782-73 692 30 480 30 279 30 161-92 100-245c-47-118-44-283 5-401 91-217 343-368 656-292 46 11 97 29 124 57-11 97-44 188-79 261l-67-10c-41-109-79-205-209-205-176 0-225 169-225 360 0 155 58 262 160 314 32 15 66 23 102 23"
         id="v" />
      <path
         fill="#3a414a"
         d="M63-888c112-16 215-38 308-72h64v826c0 8 10 18 30 30s54 22 103 31V0H63v-73c45-9 79-20 100-31s32-21 32-30c-1-198 2-400-1-596-1-77-54-79-131-88v-70zm272-483c78 0 138 32 138 110 0 98-68 152-168 152-79 0-137-33-137-111 0-98 69-151 167-151"
         id="w" />
      <path
         fill="#3a414a"
         d="M681-138c187 0 198-281 154-453-28-109-88-199-212-199-97 0-134 64-203 112v450c84 45 144 90 261 90zM414-795c110-97 268-221 458-137 142 63 208 220 208 432 0 207-102 348-215 451-45 41-101 79-174 79-122 0-189-60-271-113v428c0 11 13 21 38 32s68 21 131 30v73H48v-73c44-11 77-21 99-31s33-20 33-31c-2-364 10-736-3-1095-2-61-59-64-129-68v-70c122-14 218-35 315-72l42 42"
         id="x" />
      <path
         fill="#3a414a"
         d="M480-153c90 0 143-40 212-75l44 73C647-91 572-44 511-14S401 30 366 30C216 30 155-87 155-244v-561H34L5-841l78-89h72v-209l202-149 38 33v325h305l36 36c-27 45-62 92-101 124-61-29-146-39-240-35v468c3 90 5 184 85 184"
         id="y" />
      <g
         id="d">
        <use
           transform="matrix(0.010850694444444444,0,0,0.010850694444444444,0,0)"
           xlink:href="#t"
           id="use156" />
        <use
           transform="matrix(0.010850694444444444,0,0,0.010850694444444444,12.890625,0)"
           xlink:href="#r"
           id="use158" />
        <use
           transform="matrix(0.010850694444444444,0,0,0.010850694444444444,22.75390625,0)"
           xlink:href="#u"
           id="use160" />
        <use
           transform="matrix(0.010850694444444444,0,0,0.010850694444444444,33.854166666666664,0)"
           xlink:href="#m"
           id="use162" />
        <use
           transform="matrix(0.010850694444444444,0,0,0.010850694444444444,46.76649305555556,0)"
           xlink:href="#s"
           id="use164" />
        <use
           transform="matrix(0.010850694444444444,0,0,0.010850694444444444,56.076388888888886,0)"
           xlink:href="#v"
           id="use166" />
        <use
           transform="matrix(0.010850694444444444,0,0,0.010850694444444444,66.20008680555556,0)"
           xlink:href="#r"
           id="use168" />
        <use
           transform="matrix(0.010850694444444444,0,0,0.010850694444444444,76.06336805555556,0)"
           xlink:href="#w"
           id="use170" />
        <use
           transform="matrix(0.010850694444444444,0,0,0.010850694444444444,82.73654513888889,0)"
           xlink:href="#x"
           id="use172" />
        <use
           transform="matrix(0.010850694444444444,0,0,0.010850694444444444,95.16059027777777,0)"
           xlink:href="#y"
           id="use174" />
      </g>
      <path
         fill="#3a414a"
         d="M729-120c148 2 174-101 217-210l73 26c-10 100-22 215-41 304H43v-73c45-9 80-20 103-31s34-21 34-30v-991c0-8-10-18-32-30s-57-23-105-32v-73h525v73c-45 9-80 20-103 31s-35 22-35 31v931c9 77 99 74 186 74h113"
         id="z" />
      <path
         fill="#3a414a"
         d="M608-1485c121-11 249-37 339-65l38 37c1 424-6 852 1 1273 1 44 4 85 54 78 27-4 45-13 73-25l28 73C1051-58 957 4 844 30c-48 0-79-58-92-175C662-60 594 30 431 30 250 30 151-100 97-245c-43-117-45-275 3-393 72-177 212-322 451-322 86 0 134 17 194 59-1-141 2-293-1-431-2-78-58-77-136-84v-69zM450-183c118 65 220-16 295-86v-437c-42-68-108-122-210-122-175 0-230 145-230 330 0 149 51 263 145 315"
         id="A" />
      <g
         id="e">
        <use
           transform="matrix(0.010850694444444444,0,0,0.010850694444444444,0,0)"
           xlink:href="#z"
           id="use179" />
        <use
           transform="matrix(0.010850694444444444,0,0,0.010850694444444444,11.317274305555555,0)"
           xlink:href="#l"
           id="use181" />
        <use
           transform="matrix(0.010850694444444444,0,0,0.010850694444444444,22.0703125,0)"
           xlink:href="#u"
           id="use183" />
        <use
           transform="matrix(0.010850694444444444,0,0,0.010850694444444444,33.170572916666664,0)"
           xlink:href="#A"
           id="use185" />
        <use
           transform="matrix(0.010850694444444444,0,0,0.010850694444444444,45.627170138888886,0)"
           xlink:href="#l"
           id="use187" />
        <use
           transform="matrix(0.010850694444444444,0,0,0.010850694444444444,56.38020833333333,0)"
           xlink:href="#r"
           id="use189" />
      </g>
      <path
         fill="#3a414a"
         d="M733-120c149 2 180-100 223-210l73 26c-9 101-22 215-41 304H43v-73c45-9 80-20 103-31s34-21 34-30v-991c0-8-10-18-32-30s-57-23-105-32v-73h881l40 32c-8 91-21 200-41 278h-75c-3-62-12-110-25-142s-32-48-57-48H430v405h398l33 35c-26 43-55 94-92 126-60-70-209-53-339-55v445c3 49 47 53 98 60 50 7 142 4 205 4"
         id="B" />
      <path
         fill="#3a414a"
         d="M304-116c0 39 56 37 95 43V0H13v-73c77-11 127-41 165-90l231-298c-83-114-161-233-249-343-28-35-74-49-136-53v-73h495v73c-39 7-86 1-78 45 37 69 91 131 134 196 47-65 104-126 145-196 10-43-36-38-76-45v-73h381v73c-89 4-141 34-181 86L647-516c93 127 179 261 278 382 28 34 71 54 129 61V0H562v-73c38-5 86-1 86-41-1-10-7-25-20-43L481-360 324-157c-13 17-20 31-20 41"
         id="C" />
      <g
         id="f">
        <use
           transform="matrix(0.010850694444444444,0,0,0.010850694444444444,0,0)"
           xlink:href="#B"
           id="use194" />
        <use
           transform="matrix(0.010850694444444444,0,0,0.010850694444444444,11.675347222222221,0)"
           xlink:href="#C"
           id="use196" />
        <use
           transform="matrix(0.010850694444444444,0,0,0.010850694444444444,23.26388888888889,0)"
           xlink:href="#n"
           id="use198" />
        <use
           transform="matrix(0.010850694444444444,0,0,0.010850694444444444,34.928385416666664,0)"
           xlink:href="#m"
           id="use200" />
      </g>
      <path
         fill="#3a414a"
         d="M522-415c101 0 146-78 146-185 0-142-66-245-207-245-97 0-146 80-146 186 0 144 63 244 207 244zm53 765c133-2 230-54 230-178 0-69-58-86-121-106-79-25-213-31-297-54-63 50-124 78-132 171 13 95 103 130 193 153 39 10 82 14 127 14zM854-792c51 72 59 207 10 292-71 123-201 204-391 205-35 33-49 49-59 84 3 21 11 28 34 35 189 59 495 33 572 193 50 103-10 216-63 273-120 128-305 228-561 196-155-20-294-66-359-177-38-65-21-150 27-193 58-53 118-95 202-141-87-42-137-66-104-127 37-68 103-114 172-162C198-355 85-434 85-602c0-179 131-276 271-330 132-52 312-27 404 42 96-10 198-45 269-70l28 37c-14 41-34 82-57 115-48 8-91 13-146 16"
         id="D" />
      <path
         fill="#3a414a"
         d="M644-1140c-115-71-322-32-312 118 8 121 112 163 201 211 153 82 329 146 407 303 48 97 22 239-26 316C821-43 638 56 388 23 288 10 187-22 116-68c-27-84-10-232 8-316l71 5c44 110 112 202 218 247 31 13 64 19 98 19 132 0 232-64 232-196 0-191-180-234-315-303-146-75-316-135-316-348 0-157 120-245 251-296 162-62 445-37 543 58 4 63-40 124-67 170-6 11-14 18-19 23l-66-6c-26-57-62-99-110-129"
         id="E" />
      <path
         fill="#3a414a"
         d="M528-828c-170 0-223 143-223 323 0 152 44 271 139 323 118 64 220-19 294-88v-430c-44-67-108-128-210-128zm481-95c-18 66-31 142-31 228V345c16 47 77 48 131 62v73H568v-73c63-9 107-19 132-29s38-22 38-33v-483C649-54 574 30 409 30 239 30 150-105 97-245c-37-98-44-252-10-356 63-191 198-309 400-353 142-31 235 31 306 104 60-32 128-69 177-110"
         id="F" />
      <path
         fill="#3a414a"
         d="M618-902c125-11 230-32 335-58l37 46c1 227-3 457 1 682 1 43 7 81 55 72 14-3 39-12 73-27l25 75C1059-61 962 2 858 30c-84-6-95-83-108-166C647-55 571 30 408 30 227 30 155-88 155-279c-1-160 4-328-1-485-2-65-55-59-120-68v-70c123-10 226-26 326-58l35 46v572c2 110 10 203 116 199 111-4 169-63 239-119-2-165 6-340-4-499-4-64-57-67-128-71v-70"
         id="G" />
      <g
         id="g">
        <use
           transform="matrix(0.010850694444444444,0,0,0.010850694444444444,0,0)"
           xlink:href="#p"
           id="use207" />
        <use
           transform="matrix(0.010850694444444444,0,0,0.010850694444444444,12.40234375,0)"
           xlink:href="#n"
           id="use209" />
        <use
           transform="matrix(0.010850694444444444,0,0,0.010850694444444444,24.06684027777778,0)"
           xlink:href="#A"
           id="use211" />
        <use
           transform="matrix(0.010850694444444444,0,0,0.010850694444444444,36.5234375,0)"
           xlink:href="#w"
           id="use213" />
        <use
           transform="matrix(0.010850694444444444,0,0,0.010850694444444444,43.196614583333336,0)"
           xlink:href="#m"
           id="use215" />
        <use
           transform="matrix(0.010850694444444444,0,0,0.010850694444444444,56.10894097222223,0)"
           xlink:href="#D"
           id="use217" />
        <use
           transform="matrix(0.010850694444444444,0,0,0.010850694444444444,67.5998263888889,0)"
           xlink:href="#E"
           id="use219" />
        <use
           transform="matrix(0.010850694444444444,0,0,0.010850694444444444,78.99305555555557,0)"
           xlink:href="#l"
           id="use221" />
        <use
           transform="matrix(0.010850694444444444,0,0,0.010850694444444444,89.74609375000001,0)"
           xlink:href="#F"
           id="use223" />
        <use
           transform="matrix(0.010850694444444444,0,0,0.010850694444444444,101.93142361111113,0)"
           xlink:href="#G"
           id="use225" />
        <use
           transform="matrix(0.010850694444444444,0,0,0.010850694444444444,114.44227430555557,0)"
           xlink:href="#l"
           id="use227" />
        <use
           transform="matrix(0.010850694444444444,0,0,0.010850694444444444,125.19531250000001,0)"
           xlink:href="#m"
           id="use229" />
        <use
           transform="matrix(0.010850694444444444,0,0,0.010850694444444444,138.1076388888889,0)"
           xlink:href="#v"
           id="use231" />
        <use
           transform="matrix(0.010850694444444444,0,0,0.010850694444444444,148.23133680555557,0)"
           xlink:href="#l"
           id="use233" />
      </g>
      <g
         id="h">
        <use
           transform="matrix(0.010850694444444444,0,0,0.010850694444444444,0,0)"
           xlink:href="#t"
           id="use236" />
        <use
           transform="matrix(0.010850694444444444,0,0,0.010850694444444444,12.890625,0)"
           xlink:href="#l"
           id="use238" />
        <use
           transform="matrix(0.010850694444444444,0,0,0.010850694444444444,23.643663194444443,0)"
           xlink:href="#r"
           id="use240" />
        <use
           transform="matrix(0.010850694444444444,0,0,0.010850694444444444,33.50694444444444,0)"
           xlink:href="#o"
           id="use242" />
        <use
           transform="matrix(0.010850694444444444,0,0,0.010850694444444444,52.25694444444444,0)"
           xlink:href="#w"
           id="use244" />
        <use
           transform="matrix(0.010850694444444444,0,0,0.010850694444444444,58.93012152777778,0)"
           xlink:href="#m"
           id="use246" />
        <use
           transform="matrix(0.010850694444444444,0,0,0.010850694444444444,71.84244791666667,0)"
           xlink:href="#u"
           id="use248" />
        <use
           transform="matrix(0.010850694444444444,0,0,0.010850694444444444,82.94270833333334,0)"
           xlink:href="#y"
           id="use250" />
        <use
           transform="matrix(0.010850694444444444,0,0,0.010850694444444444,91.16753472222221,0)"
           xlink:href="#n"
           id="use252" />
        <use
           transform="matrix(0.010850694444444444,0,0,0.010850694444444444,102.83203125,0)"
           xlink:href="#r"
           id="use254" />
      </g>
      <g
         id="i">
        <use
           transform="matrix(0.010850694444444444,0,0,0.010850694444444444,0,0)"
           xlink:href="#p"
           id="use257" />
        <use
           transform="matrix(0.010850694444444444,0,0,0.010850694444444444,12.40234375,0)"
           xlink:href="#n"
           id="use259" />
        <use
           transform="matrix(0.010850694444444444,0,0,0.010850694444444444,24.06684027777778,0)"
           xlink:href="#m"
           id="use261" />
        <use
           transform="matrix(0.010850694444444444,0,0,0.010850694444444444,36.97916666666667,0)"
           xlink:href="#y"
           id="use263" />
        <use
           transform="matrix(0.010850694444444444,0,0,0.010850694444444444,45.20399305555556,0)"
           xlink:href="#w"
           id="use265" />
        <use
           transform="matrix(0.010850694444444444,0,0,0.010850694444444444,51.8771701388889,0)"
           xlink:href="#D"
           id="use267" />
      </g>
      <path
         fill="#3a414a"
         d="M711-894c-26 44-61 91-98 124-49-23-101-36-188-35v673c6 15 21 18 43 24 49 14 96 23 159 35V0H53v-73c46-8 80-17 101-29s31-22 31-30v-673H66l-28-36 78-89h69c-10-311 117-483 323-587 113-57 285-18 362 38 42 31 5 63-13 85-35 43-83 82-131 111-48-60-94-101-170-112-90 11-103 95-120 190-12 65-12 183-11 275h249"
         id="H" />
      <path
         fill="#3a414a"
         d="M63-1470c123-17 231-39 329-80l43 41v1375c9 30 42 35 75 46 18 6 41 10 68 15V0H53v-73c57-11 103-17 136-45 4-5 6-11 6-16v-1132c0-71-5-115-64-124-17-3-40-7-68-10v-70"
         id="I" />
      <g
         id="j">
        <use
           transform="matrix(0.010850694444444444,0,0,0.010850694444444444,0,0)"
           xlink:href="#E"
           id="use272" />
        <use
           transform="matrix(0.010850694444444444,0,0,0.010850694444444444,11.393229166666666,0)"
           xlink:href="#v"
           id="use274" />
        <use
           transform="matrix(0.010850694444444444,0,0,0.010850694444444444,21.516927083333332,0)"
           xlink:href="#u"
           id="use276" />
        <use
           transform="matrix(0.010850694444444444,0,0,0.010850694444444444,32.6171875,0)"
           xlink:href="#H"
           id="use278" />
        <use
           transform="matrix(0.010850694444444444,0,0,0.010850694444444444,40.169270833333336,0)"
           xlink:href="#H"
           id="use280" />
        <use
           transform="matrix(0.010850694444444444,0,0,0.010850694444444444,47.72135416666667,0)"
           xlink:href="#n"
           id="use282" />
        <use
           transform="matrix(0.010850694444444444,0,0,0.010850694444444444,59.38585069444445,0)"
           xlink:href="#I"
           id="use284" />
        <use
           transform="matrix(0.010850694444444444,0,0,0.010850694444444444,66.05902777777779,0)"
           xlink:href="#A"
           id="use286" />
      </g>
    </defs>
  </g>
</svg>
