<?xml version="1.0" encoding="UTF-8" standalone="no"?>
<!-- Generated by graphviz version 2.50.0 (0)
 -->

<!-- Pages: 1 -->

<svg
   width="999.8446pt"
   height="380.60876pt"
   viewBox="0 0 999.01554 380.60877"
   version="1.1"
   id="svg135"
   sodipodi:docname="flatten.svg"
   inkscape:version="1.1.1 (3bf5ae0d25, 2021-09-20, custom)"
   xmlns:inkscape="http://www.inkscape.org/namespaces/inkscape"
   xmlns:sodipodi="http://sodipodi.sourceforge.net/DTD/sodipodi-0.dtd"
   xmlns="http://www.w3.org/2000/svg"
   xmlns:svg="http://www.w3.org/2000/svg">
  <defs
     id="defs139">
    <marker
       style="overflow:visible"
       id="Arrow2Lend"
       refX="0"
       refY="0"
       orient="auto"
       inkscape:stockid="Arrow2Lend"
       inkscape:isstock="true">
      <path
         transform="matrix(-1.1,0,0,-1.1,-1.1,0)"
         d="M 8.7185878,4.0337352 -2.2072895,0.01601326 8.7185884,-4.0017078 c -1.7454984,2.3720609 -1.7354408,5.6174519 -6e-7,8.035443 z"
         style="fill:context-stroke;fill-rule:evenodd;stroke:context-stroke;stroke-width:0.625;stroke-linejoin:round"
         id="path2778" />
    </marker>
    <marker
       style="overflow:visible"
       id="Arrow1Lstart"
       refX="0"
       refY="0"
       orient="auto"
       inkscape:stockid="Arrow1Lstart"
       inkscape:isstock="true">
      <path
         transform="matrix(0.8,0,0,0.8,10,0)"
         style="fill:context-stroke;fill-rule:evenodd;stroke:context-stroke;stroke-width:1pt"
         d="M 0,0 5,-5 -12.5,0 5,5 Z"
         id="path2757" />
    </marker>
    <marker
       style="overflow:visible"
       id="Arrow1Lend"
       refX="0"
       refY="0"
       orient="auto"
       inkscape:stockid="Arrow1Lend"
       inkscape:isstock="true">
      <path
         transform="matrix(-0.8,0,0,-0.8,-10,0)"
         style="fill:context-stroke;fill-rule:evenodd;stroke:context-stroke;stroke-width:1pt"
         d="M 0,0 5,-5 -12.5,0 5,5 Z"
         id="path2760" />
    </marker>
  </defs>
  <sodipodi:namedview
     id="namedview137"
     pagecolor="#ffffff"
     bordercolor="#666666"
     borderopacity="1.0"
     inkscape:pageshadow="2"
     inkscape:pageopacity="0.0"
     inkscape:pagecheckerboard="0"
     inkscape:document-units="pt"
     showgrid="false"
     fit-margin-top="15"
     fit-margin-left="15"
     fit-margin-right="15"
     fit-margin-bottom="15"
     showguides="false"
     inkscape:zoom="0.66271307"
     inkscape:cx="700.15218"
     inkscape:cy="457.21145"
     inkscape:window-width="1920"
     inkscape:window-height="1135"
     inkscape:window-x="0"
     inkscape:window-y="0"
     inkscape:window-maximized="1"
     inkscape:current-layer="path2755"
     lock-margins="true" />
  <g
     id="graph0"
     class="graph"
     transform="translate(249.70189,248)">
    <!-- 1875308878 -->
    <g
       id="node1"
       class="node">
      <title
         id="title4">1875308878</title>
      <polygon
         fill="#fb8072"
         stroke="#fb8072"
         points="349.5,-178 349.5,-231 193.5,-231 193.5,-178 "
         id="polygon6"
         style="stroke:#6e008d;stroke-width:4;stroke-miterlimit:4;stroke-dasharray:none;stroke-opacity:1" />
      <text
         text-anchor="middle"
         x="271.5"
         y="-215.8"
         font-family="Times, serif"
         font-size="14px"
         id="text8">GENE</text>
      <text
         text-anchor="middle"
         x="271.5"
         y="-200.8"
         font-family="Times, serif"
         font-size="14px"
         id="text10">10647-11026</text>
      <text
         text-anchor="middle"
         x="271.5"
         y="-185.8"
         font-family="Times, serif"
         font-size="14px"
         id="text12">Zm00001eb437070</text>
    </g>
    <!-- 473581465 -->
    <g
       id="node2"
       class="node">
      <title
         id="title15">473581465</title>
      <polygon
         fill="#80b1d3"
         stroke="#80b1d3"
         points="371,-89 371,-142 172,-142 172,-89 "
         id="polygon17" />
      <text
         text-anchor="middle"
         x="271.5"
         y="-126.8"
         font-family="Times, serif"
         font-size="14px"
         id="text19">TRANSCRIPT</text>
      <text
         text-anchor="middle"
         x="271.5"
         y="-111.8"
         font-family="Times, serif"
         font-size="14px"
         id="text21">10647-11026</text>
      <text
         text-anchor="middle"
         x="271.5"
         y="-96.800003"
         font-family="Times, serif"
         font-size="14px"
         id="text23">Zm00001eb437070_T001</text>
    </g>
    <!-- 1875308878&#45;&gt;473581465 -->
    <g
       id="edge1"
       class="edge">
      <title
         id="title26">1875308878-&gt;473581465</title>
      <path
         fill="none"
         stroke="#000000"
         d="m 265.28,-177.87 c -0.5,7.98 -0.65,16.94 -0.44,25.49"
         id="path28" />
      <polygon
         fill="#000000"
         stroke="#000000"
         points="268.35,-152.39 265.28,-142.25 261.35,-152.09 "
         id="polygon30" />
    </g>
    <!-- 473581465&#45;&gt;1875308878 -->
    <g
       id="edge2"
       class="edge">
      <title
         id="title33">473581465-&gt;1875308878</title>
      <path
         fill="none"
         stroke="#000000"
         d="m 277.72,-142.25 c 0.5,-7.99 0.65,-16.95 0.43,-25.49"
         id="path35" />
      <polygon
         fill="#000000"
         stroke="#000000"
         points="274.65,-167.73 277.72,-177.87 281.65,-168.03 "
         id="polygon37" />
    </g>
    <!-- 81009902 -->
    <g
       id="node3"
       class="node">
      <title
         id="title40">81009902</title>
      <polygon
         fill="#b3de69"
         stroke="#b3de69"
         points="111,-7.5 111,-45.5 0,-45.5 0,-7.5 "
         id="polygon42" />
      <text
         text-anchor="middle"
         x="55.5"
         y="-30.299999"
         font-family="Times, serif"
         font-size="14px"
         id="text44">EXON</text>
      <text
         text-anchor="middle"
         x="55.5"
         y="-15.3"
         font-family="Times, serif"
         font-size="14px"
         id="text46">10647-11026</text>
    </g>
    <!-- 473581465&#45;&gt;81009902 -->
    <g
       id="edge3"
       class="edge">
      <title
         id="title49">473581465-&gt;81009902</title>
      <path
         fill="none"
         stroke="#000000"
         d="m 201.94,-88.98 c -31.89,12.52 -68.89,27.45 -97.75,39.47"
         id="path51" />
      <polygon
         fill="#000000"
         stroke="#000000"
         points="105.31,-46.18 94.73,-45.55 102.61,-52.64 "
         id="polygon53" />
    </g>
    <!-- 57748372 -->
    <g
       id="node4"
       class="node">
      <title
         id="title56">57748372</title>
      <polygon
         fill="#fdb462"
         stroke="#fdb462"
         points="240,-7.5 240,-45.5 129,-45.5 129,-7.5 "
         id="polygon58" />
      <text
         text-anchor="middle"
         x="184.5"
         y="-30.299999"
         font-family="Times, serif"
         font-size="14px"
         id="text60">LEADER</text>
      <text
         text-anchor="middle"
         x="184.5"
         y="-15.3"
         font-family="Times, serif"
         font-size="14px"
         id="text62">10647-10845</text>
    </g>
    <!-- 473581465&#45;&gt;57748372 -->
    <g
       id="edge4"
       class="edge">
      <title
         id="title65">473581465-&gt;57748372</title>
      <path
         fill="none"
         stroke="#000000"
         d="m 239.65,-88.87 c -12.04,11.32 -25.31,24.6 -35.89,35.9"
         id="path67" />
      <polygon
         fill="#000000"
         stroke="#000000"
         points="206.26,-50.51 196.92,-45.51 201.1,-55.24 "
         id="polygon69" />
    </g>
    <!-- 674483268 -->
    <g
       id="node5"
       class="node">
      <title
         id="title72">674483268</title>
      <polygon
         fill="#fccde5"
         stroke="#fccde5"
         points="458.5,0 458.5,-53 258.5,-53 258.5,0 "
         id="polygon74" />
      <text
         text-anchor="middle"
         x="358.5"
         y="-37.799999"
         font-family="Times, serif"
         font-size="14px"
         id="text76">CODING_SEQUENCE</text>
      <text
         text-anchor="middle"
         x="358.5"
         y="-22.799999"
         font-family="Times, serif"
         font-size="14px"
         id="text78">10846-11025</text>
      <text
         text-anchor="middle"
         x="358.5"
         y="-7.8000002"
         font-family="Times, serif"
         font-size="14px"
         id="text80">Zm00001eb437070_P001</text>
    </g>
    <!-- 473581465&#45;&gt;674483268 -->
    <g
       id="edge5"
       class="edge">
      <title
         id="title83">473581465-&gt;674483268</title>
      <path
         fill="none"
         stroke="#000000"
         d="m 290.92,-88.87 c 8.38,8.95 18.43,19.12 28.21,28.57"
         id="path85" />
      <polygon
         fill="#000000"
         stroke="#000000"
         points="321.71,-62.68 326.53,-53.25 316.87,-57.62 "
         id="polygon87" />
    </g>
    <!-- 54495403 -->
    <g
       id="node6"
       class="node">
      <title
         id="title90">54495403</title>
      <polygon
         fill="#d9d9d9"
         stroke="#d9d9d9"
         points="594.5,-7.5 594.5,-45.5 476.5,-45.5 476.5,-7.5 "
         id="polygon92" />
      <text
         text-anchor="middle"
         x="535.5"
         y="-30.299999"
         font-family="Times, serif"
         font-size="14px"
         id="text94">TERMINATOR</text>
      <text
         text-anchor="middle"
         x="535.5"
         y="-15.3"
         font-family="Times, serif"
         font-size="14px"
         id="text96">11026-11026</text>
    </g>
    <!-- 473581465&#45;&gt;54495403 -->
    <g
       id="edge6"
       class="edge">
      <title
         id="title99">473581465-&gt;54495403</title>
      <path
         fill="none"
         stroke="#000000"
         d="m 348.39,-88.87 c 33.87,10.67 74.03,23.45 110.11,35.87 3.72,1.28 7.54,2.62 11.39,4"
         id="path101" />
      <polygon
         fill="#000000"
         stroke="#000000"
         points="471.31,-52.21 479.53,-45.53 468.94,-45.62 "
         id="polygon103" />
    </g>
    <!-- 81009902&#45;&gt;473581465 -->
    <g
       id="edge7"
       class="edge">
      <title
         id="title106">81009902-&gt;473581465</title>
      <path
         fill="none"
         stroke="#000000"
         d="m 105.92,-45.55 c 29.57,-11.44 67.21,-26.49 99.16,-39.61"
         id="path108" />
      <polygon
         fill="#000000"
         stroke="#000000"
         points="203.78,-88.41 214.36,-88.98 206.45,-81.94 "
         id="polygon110" />
    </g>
    <!-- 57748372&#45;&gt;473581465 -->
    <g
       id="edge8"
       class="edge">
      <title
         id="title113">57748372-&gt;473581465</title>
      <path
         fill="none"
         stroke="#000000"
         d="m 208.1,-45.51 c 11.45,-10.37 25.15,-23.74 36.93,-35.95"
         id="path115" />
      <polygon
         fill="#000000"
         stroke="#000000"
         points="242.65,-84.04 252.08,-88.87 247.72,-79.21 "
         id="polygon117" />
    </g>
    <!-- 674483268&#45;&gt;473581465 -->
    <g
       id="edge9"
       class="edge">
      <title
         id="title120">674483268-&gt;473581465</title>
      <path
         fill="none"
         stroke="#000000"
         d="m 338.97,-53.25 c -8.39,-8.96 -18.45,-19.13 -28.23,-28.57"
         id="path122" />
      <polygon
         fill="#000000"
         stroke="#000000"
         points="308.17,-79.43 303.35,-88.87 313,-84.5 "
         id="polygon124" />
    </g>
    <!-- 54495403&#45;&gt;473581465 -->
    <g
       id="edge10"
       class="edge">
      <title
         id="title127">54495403-&gt;473581465</title>
      <path
         fill="none"
         stroke="#000000"
         d="M 497.33,-45.53 C 490.44,-48.1 483.3,-50.66 476.5,-53 443.66,-64.3 407.44,-75.9 374.67,-85.94"
         id="path129" />
      <polygon
         fill="#000000"
         stroke="#000000"
         points="373.62,-82.61 365.07,-88.87 375.66,-89.3 "
         id="polygon131" />
    </g>
  </g>
  <g
     id="g2720"
     transform="translate(236.10783,-156.71784)">
    <g
       id="graph0-9"
       class="graph"
       transform="translate(4,524.29891)">
      <!-- 1875308878 -->
      <!-- 473581465 -->
      <!-- 1875308878&#45;&gt;473581465 -->
      <!-- 473581465&#45;&gt;1875308878 -->
      <!-- 81009902 -->
      <!-- 473581465&#45;&gt;81009902 -->
      <!-- 57748372 -->
      <!-- 473581465&#45;&gt;57748372 -->
      <!-- 674483268 -->
      <!-- 473581465&#45;&gt;674483268 -->
      <!-- 54495403 -->
      <g
         id="g2562"
         transform="translate(123.09581,-22.019124)">
        <g
           id="node2-0"
           class="node"
           transform="translate(-387.78256,91.200088)">
          <title
             id="title15-9">473581465</title>
          <polygon
             fill="#80b1d3"
             stroke="#80b1d3"
             points="371,-142 172,-142 172,-89 371,-89 "
             id="polygon17-2" />
          <text
             text-anchor="middle"
             x="271.5"
             y="-126.8"
             font-family="Times, serif"
             font-size="14px"
             id="text19-5">TRANSCRIPT</text>
          <text
             text-anchor="middle"
             x="271.5"
             y="-111.8"
             font-family="Times, serif"
             font-size="14px"
             id="text21-4">10647-11026</text>
          <text
             text-anchor="middle"
             x="271.5"
             y="-96.800003"
             font-family="Times, serif"
             font-size="14px"
             id="text23-0">Zm00001eb437070_T001</text>
        </g>
        <g
           id="node3-7"
           class="node"
           transform="translate(1.0380778)">
          <title
             id="title40-7">81009902</title>
          <polygon
             fill="#b3de69"
             stroke="#b3de69"
             points="0,-45.5 0,-7.5 111,-7.5 111,-45.5 "
             id="polygon42-5" />
          <text
             text-anchor="middle"
             x="55.5"
             y="-30.299999"
             font-family="Times, serif"
             font-size="14px"
             id="text44-4">EXON</text>
          <text
             text-anchor="middle"
             x="55.5"
             y="-15.3"
             font-family="Times, serif"
             font-size="14px"
             id="text46-8">10647-11026</text>
        </g>
        <g
           id="node4-3"
           class="node"
           transform="translate(0.85871887)">
          <title
             id="title56-6">57748372</title>
          <polygon
             fill="#fdb462"
             stroke="#fdb462"
             points="129,-45.5 129,-7.5 240,-7.5 240,-45.5 "
             id="polygon58-8" />
          <text
             text-anchor="middle"
             x="184.5"
             y="-30.299999"
             font-family="Times, serif"
             font-size="14px"
             id="text60-0">LEADER</text>
          <text
             text-anchor="middle"
             x="184.5"
             y="-15.3"
             font-family="Times, serif"
             font-size="14px"
             id="text62-2">10647-10845</text>
        </g>
        <g
           id="node5-1"
           class="node"
           transform="translate(0.17936707)">
          <title
             id="title72-0">674483268</title>
          <polygon
             fill="#fccde5"
             stroke="#fccde5"
             points="258.5,-53 258.5,0 458.5,0 458.5,-53 "
             id="polygon74-8" />
          <text
             text-anchor="middle"
             x="358.5"
             y="-37.799999"
             font-family="Times, serif"
             font-size="14px"
             id="text76-5">CODING_SEQUENCE</text>
          <text
             text-anchor="middle"
             x="358.5"
             y="-22.799999"
             font-family="Times, serif"
             font-size="14px"
             id="text78-0">10846-11025</text>
          <text
             text-anchor="middle"
             x="358.5"
             y="-7.8000002"
             font-family="Times, serif"
             font-size="14px"
             id="text80-6">Zm00001eb437070_P001</text>
        </g>
        <g
           id="node6-8"
           class="node"
           transform="translate(3.0517578e-5)">
          <title
             id="title90-6">54495403</title>
          <polygon
             fill="#d9d9d9"
             stroke="#d9d9d9"
             points="594.5,-7.5 594.5,-45.5 476.5,-45.5 476.5,-7.5 "
             id="polygon92-2" />
          <text
             text-anchor="middle"
             x="535.5"
             y="-30.299999"
             font-family="Times, serif"
             font-size="14px"
             id="text94-8">TERMINATOR</text>
          <text
             text-anchor="middle"
             x="535.5"
             y="-15.3"
             font-family="Times, serif"
             font-size="14px"
             id="text96-4">11026-11026</text>
        </g>
      </g>
      <!-- 473581465&#45;&gt;54495403 -->
      <!-- 81009902&#45;&gt;473581465 -->
      <!-- 57748372&#45;&gt;473581465 -->
      <!-- 674483268&#45;&gt;473581465 -->
      <!-- 54495403&#45;&gt;473581465 -->
    </g>
    <rect
       style="fill:none;stroke:#6e008d;stroke-width:4;stroke-miterlimit:4;stroke-dasharray:none;stroke-opacity:1"
       id="rect2586"
       width="854.41992"
       height="87.627029"
       x="-108.09352"
       y="432.69958" />
  </g>
  <g
     id="path2755">
    <path
       style="color:#000000;fill:#6e008d;stroke-miterlimit:0.7;-inkscape-stroke:none"
       d="M 414.30664,37.164062 C 360.6682,37.210304 241.60567,40.388535 147.33008,65.0625 115.90488,73.287155 87.217256,83.897257 64.5625,97.673828 41.907744,111.4504 25.219653,128.45292 18.210937,149.45703 c -7.008715,21.00411 -4.188603,45.79862 11.466797,74.67188 15.655401,28.87325 44.109879,61.95855 88.677736,100.08789 l 2.60156,-3.03907 C 76.619311,283.24528 48.491884,250.43412 33.195312,222.22266 17.898741,194.01119 15.395916,170.53366 22.005859,150.72461 28.615803,130.91556 44.489065,114.56237 66.640625,101.0918 88.792185,87.621224 117.15795,77.09364 148.34375,68.931641 273.08696,36.283642 442.67187,41.480469 442.67187,41.480469 l 0.12305,-3.998047 c 0,0 -10.6088,-0.333773 -28.48828,-0.31836 z"
       id="path964" />
    <g
       id="g954"
       transform="matrix(0.67162695,0,0,0.67162695,44.918468,110.69418)">
      <g
         id="path956">
        <path
           style="color:#000000;fill:#6e008d;fill-rule:evenodd;stroke-width:2.75;stroke-linejoin:round;-inkscape-stroke:none"
           d="M 98.701604,281.41261 123.7388,326.09757 75.717173,308.27818 c 12.62087,-2.93792 21.870299,-13.81728 22.984431,-26.86557 z"
           id="path960" />
        <path
           style="color:#000000;fill:#6e008d;fill-rule:evenodd;stroke-linejoin:round;-inkscape-stroke:none"
           d="m 98.412109,280.06836 a 1.3751375,1.3751375 0 0 0 -1.080078,1.22656 C 96.26727,293.765 87.441546,304.13784 75.40625,306.93945 a 1.3751375,1.3751375 0 0 0 -0.167969,2.62696 l 48.021489,17.82031 a 1.3751375,1.3751375 0 0 0 1.67773,-1.96094 L 99.900391,280.74023 a 1.3751375,1.3751375 0 0 0 -1.488282,-0.67187 z M 99.416016,285.5 120.71094,323.50781 79.919922,308.37109 C 89.853708,304.61369 97.174759,295.9817 99.416016,285.5 Z"
           id="path962" />
      </g>
    </g>
  </g>
  <text
     xml:space="preserve"
     style="font-size:28px;line-height:1.25;font-family:sans-serif;fill:#6e008d;fill-opacity:1;stroke-width:0.75"
     x="37.447304"
     y="183.53294"
     id="text7171"><tspan
       sodipodi:role="line"
       id="tspan7169"
       style="font-style:normal;font-variant:normal;font-weight:normal;font-stretch:normal;font-size:28px;font-family:mono;-inkscape-font-specification:mono;fill:#6e008d;fill-opacity:1;stroke-width:0.75"
       x="37.447304"
       y="183.53294">flatten()</tspan></text>
</svg>
