<?xml version="1.0" encoding="UTF-8" standalone="no"?>
<!-- Generated by graphviz version 2.50.0 (0)
 -->

<!-- Pages: 1 -->

<svg
   width="603pt"
   height="239pt"
   viewBox="0.00 0.00 602.50 239.00"
   version="1.1"
   id="svg135"
   sodipodi:docname="visualize.svg"
   inkscape:version="1.1.1 (3bf5ae0d25, 2021-09-20, custom)"
   xmlns:inkscape="http://www.inkscape.org/namespaces/inkscape"
   xmlns:sodipodi="http://sodipodi.sourceforge.net/DTD/sodipodi-0.dtd"
   xmlns="http://www.w3.org/2000/svg"
   xmlns:svg="http://www.w3.org/2000/svg">
  <defs
     id="defs139" />
  <sodipodi:namedview
     id="namedview137"
     pagecolor="#ffffff"
     bordercolor="#666666"
     borderopacity="1.0"
     inkscape:pageshadow="2"
     inkscape:pageopacity="0.0"
     inkscape:pagecheckerboard="0"
     inkscape:document-units="pt"
     showgrid="false"
     inkscape:zoom="1.0791294"
     inkscape:cx="406.80942"
     inkscape:cy="229.81489"
     inkscape:window-width="1920"
     inkscape:window-height="1135"
     inkscape:window-x="0"
     inkscape:window-y="0"
     inkscape:window-maximized="1"
     inkscape:current-layer="svg135" />
  <g
     id="graph0"
     class="graph"
     transform="scale(1 1) rotate(0) translate(4 235)">
    <polygon
       fill="white"
       stroke="transparent"
       points="-4,4 -4,-235 598.5,-235 598.5,4 -4,4"
       id="polygon2" />
    <!-- 1875308878 -->
    <g
       id="node1"
       class="node">
      <title
         id="title4">1875308878</title>
      <polygon
         fill="#fb8072"
         stroke="#fb8072"
         points="349.5,-231 193.5,-231 193.5,-178 349.5,-178 349.5,-231"
         id="polygon6" />
      <text
         text-anchor="middle"
         x="271.5"
         y="-215.8"
         font-family="Times,serif"
         font-size="14.00"
         id="text8">GENE</text>
      <text
         text-anchor="middle"
         x="271.5"
         y="-200.8"
         font-family="Times,serif"
         font-size="14.00"
         id="text10">10647-11026</text>
      <text
         text-anchor="middle"
         x="271.5"
         y="-185.8"
         font-family="Times,serif"
         font-size="14.00"
         id="text12">Zm00001eb437070</text>
    </g>
    <!-- 473581465 -->
    <g
       id="node2"
       class="node">
      <title
         id="title15">473581465</title>
      <polygon
         fill="#80b1d3"
         stroke="#80b1d3"
         points="371,-142 172,-142 172,-89 371,-89 371,-142"
         id="polygon17" />
      <text
         text-anchor="middle"
         x="271.5"
         y="-126.8"
         font-family="Times,serif"
         font-size="14.00"
         id="text19">TRANSCRIPT</text>
      <text
         text-anchor="middle"
         x="271.5"
         y="-111.8"
         font-family="Times,serif"
         font-size="14.00"
         id="text21">10647-11026</text>
      <text
         text-anchor="middle"
         x="271.5"
         y="-96.8"
         font-family="Times,serif"
         font-size="14.00"
         id="text23">Zm00001eb437070_T001</text>
    </g>
    <!-- 1875308878&#45;&gt;473581465 -->
    <g
       id="edge1"
       class="edge">
      <title
         id="title26">1875308878-&gt;473581465</title>
      <path
         fill="none"
         stroke="black"
         d="M265.28,-177.87C264.78,-169.89 264.63,-160.93 264.84,-152.38"
         id="path28" />
      <polygon
         fill="black"
         stroke="black"
         points="268.35,-152.39 265.28,-142.25 261.35,-152.09 268.35,-152.39"
         id="polygon30" />
    </g>
    <!-- 473581465&#45;&gt;1875308878 -->
    <g
       id="edge2"
       class="edge">
      <title
         id="title33">473581465-&gt;1875308878</title>
      <path
         fill="none"
         stroke="black"
         d="M277.72,-142.25C278.22,-150.24 278.37,-159.2 278.15,-167.74"
         id="path35" />
      <polygon
         fill="black"
         stroke="black"
         points="274.65,-167.73 277.72,-177.87 281.65,-168.03 274.65,-167.73"
         id="polygon37" />
    </g>
    <!-- 81009902 -->
    <g
       id="node3"
       class="node">
      <title
         id="title40">81009902</title>
      <polygon
         fill="#b3de69"
         stroke="#b3de69"
         points="111,-45.5 0,-45.5 0,-7.5 111,-7.5 111,-45.5"
         id="polygon42" />
      <text
         text-anchor="middle"
         x="55.5"
         y="-30.3"
         font-family="Times,serif"
         font-size="14.00"
         id="text44">EXON</text>
      <text
         text-anchor="middle"
         x="55.5"
         y="-15.3"
         font-family="Times,serif"
         font-size="14.00"
         id="text46">10647-11026</text>
    </g>
    <!-- 473581465&#45;&gt;81009902 -->
    <g
       id="edge3"
       class="edge">
      <title
         id="title49">473581465-&gt;81009902</title>
      <path
         fill="none"
         stroke="black"
         d="M201.94,-88.98C170.05,-76.46 133.05,-61.53 104.19,-49.51"
         id="path51" />
      <polygon
         fill="black"
         stroke="black"
         points="105.31,-46.18 94.73,-45.55 102.61,-52.64 105.31,-46.18"
         id="polygon53" />
    </g>
    <!-- 57748372 -->
    <g
       id="node4"
       class="node">
      <title
         id="title56">57748372</title>
      <polygon
         fill="#fdb462"
         stroke="#fdb462"
         points="240,-45.5 129,-45.5 129,-7.5 240,-7.5 240,-45.5"
         id="polygon58" />
      <text
         text-anchor="middle"
         x="184.5"
         y="-30.3"
         font-family="Times,serif"
         font-size="14.00"
         id="text60">LEADER</text>
      <text
         text-anchor="middle"
         x="184.5"
         y="-15.3"
         font-family="Times,serif"
         font-size="14.00"
         id="text62">10647-10845</text>
    </g>
    <!-- 473581465&#45;&gt;57748372 -->
    <g
       id="edge4"
       class="edge">
      <title
         id="title65">473581465-&gt;57748372</title>
      <path
         fill="none"
         stroke="black"
         d="M239.65,-88.87C227.61,-77.55 214.34,-64.27 203.76,-52.97"
         id="path67" />
      <polygon
         fill="black"
         stroke="black"
         points="206.26,-50.51 196.92,-45.51 201.1,-55.24 206.26,-50.51"
         id="polygon69" />
    </g>
    <!-- 674483268 -->
    <g
       id="node5"
       class="node">
      <title
         id="title72">674483268</title>
      <polygon
         fill="#fccde5"
         stroke="#fccde5"
         points="458.5,-53 258.5,-53 258.5,0 458.5,0 458.5,-53"
         id="polygon74" />
      <text
         text-anchor="middle"
         x="358.5"
         y="-37.8"
         font-family="Times,serif"
         font-size="14.00"
         id="text76">CODING_SEQUENCE</text>
      <text
         text-anchor="middle"
         x="358.5"
         y="-22.8"
         font-family="Times,serif"
         font-size="14.00"
         id="text78">10846-11025</text>
      <text
         text-anchor="middle"
         x="358.5"
         y="-7.8"
         font-family="Times,serif"
         font-size="14.00"
         id="text80">Zm00001eb437070_P001</text>
    </g>
    <!-- 473581465&#45;&gt;674483268 -->
    <g
       id="edge5"
       class="edge">
      <title
         id="title83">473581465-&gt;674483268</title>
      <path
         fill="none"
         stroke="black"
         d="M290.92,-88.87C299.3,-79.92 309.35,-69.75 319.13,-60.3"
         id="path85" />
      <polygon
         fill="black"
         stroke="black"
         points="321.71,-62.68 326.53,-53.25 316.87,-57.62 321.71,-62.68"
         id="polygon87" />
    </g>
    <!-- 54495403 -->
    <g
       id="node6"
       class="node">
      <title
         id="title90">54495403</title>
      <polygon
         fill="#d9d9d9"
         stroke="#d9d9d9"
         points="594.5,-45.5 476.5,-45.5 476.5,-7.5 594.5,-7.5 594.5,-45.5"
         id="polygon92" />
      <text
         text-anchor="middle"
         x="535.5"
         y="-30.3"
         font-family="Times,serif"
         font-size="14.00"
         id="text94">TERMINATOR</text>
      <text
         text-anchor="middle"
         x="535.5"
         y="-15.3"
         font-family="Times,serif"
         font-size="14.00"
         id="text96">11026-11026</text>
    </g>
    <!-- 473581465&#45;&gt;54495403 -->
    <g
       id="edge6"
       class="edge">
      <title
         id="title99">473581465-&gt;54495403</title>
      <path
         fill="none"
         stroke="black"
         d="M348.39,-88.87C382.26,-78.2 422.42,-65.42 458.5,-53 462.22,-51.72 466.04,-50.38 469.89,-49"
         id="path101" />
      <polygon
         fill="black"
         stroke="black"
         points="471.31,-52.21 479.53,-45.53 468.94,-45.62 471.31,-52.21"
         id="polygon103" />
    </g>
    <!-- 81009902&#45;&gt;473581465 -->
    <g
       id="edge7"
       class="edge">
      <title
         id="title106">81009902-&gt;473581465</title>
      <path
         fill="none"
         stroke="black"
         d="M105.92,-45.55C135.49,-56.99 173.13,-72.04 205.08,-85.16"
         id="path108" />
      <polygon
         fill="black"
         stroke="black"
         points="203.78,-88.41 214.36,-88.98 206.45,-81.94 203.78,-88.41"
         id="polygon110" />
    </g>
    <!-- 57748372&#45;&gt;473581465 -->
    <g
       id="edge8"
       class="edge">
      <title
         id="title113">57748372-&gt;473581465</title>
      <path
         fill="none"
         stroke="black"
         d="M208.1,-45.51C219.55,-55.88 233.25,-69.25 245.03,-81.46"
         id="path115" />
      <polygon
         fill="black"
         stroke="black"
         points="242.65,-84.04 252.08,-88.87 247.72,-79.21 242.65,-84.04"
         id="polygon117" />
    </g>
    <!-- 674483268&#45;&gt;473581465 -->
    <g
       id="edge9"
       class="edge">
      <title
         id="title120">674483268-&gt;473581465</title>
      <path
         fill="none"
         stroke="black"
         d="M338.97,-53.25C330.58,-62.21 320.52,-72.38 310.74,-81.82"
         id="path122" />
      <polygon
         fill="black"
         stroke="black"
         points="308.17,-79.43 303.35,-88.87 313,-84.5 308.17,-79.43"
         id="polygon124" />
    </g>
    <!-- 54495403&#45;&gt;473581465 -->
    <g
       id="edge10"
       class="edge">
      <title
         id="title127">54495403-&gt;473581465</title>
      <path
         fill="none"
         stroke="black"
         d="M497.33,-45.53C490.44,-48.1 483.3,-50.66 476.5,-53 443.66,-64.3 407.44,-75.9 374.67,-85.94"
         id="path129" />
      <polygon
         fill="black"
         stroke="black"
         points="373.62,-82.61 365.07,-88.87 375.66,-89.3 373.62,-82.61"
         id="polygon131" />
    </g>
  </g>
</svg>
